<svg width="29" height="29" viewBox="0 0 29 29" fill="none" xmlns="http://www.w3.org/2000/svg">
<path d="M23.0394 7.03525C22.8636 6.94433 22.6925 6.84467 22.5266 6.73664C22.0448 6.41804 21.603 6.04267 21.2107 5.61861C20.2281 4.4948 19.8612 3.35478 19.7269 2.55735H19.7316C19.6193 1.89417 19.6656 1.46594 19.6737 1.46594H15.2004V18.7606C15.2004 18.9921 15.2004 19.2224 15.1912 19.4493C15.1912 19.4771 15.1877 19.5025 15.1865 19.5338C15.1865 19.5453 15.1865 19.5592 15.1831 19.572V19.5824C15.1361 20.2028 14.9374 20.8021 14.6044 21.3276C14.2714 21.8532 13.8143 22.2888 13.2734 22.5962C12.7091 22.9172 12.0708 23.0856 11.4216 23.0846C9.33832 23.0846 7.64855 21.3856 7.64855 19.2873C7.64855 17.1878 9.33832 15.4887 11.4216 15.4887C11.8163 15.4887 12.2086 15.5512 12.5836 15.6739L12.5894 11.1185C11.4505 10.9715 10.2936 11.0623 9.19161 11.385C8.0896 11.7077 7.06647 12.2554 6.18678 12.9934C5.4158 13.663 4.76758 14.462 4.27132 15.3545C4.08266 15.6797 3.36972 16.9887 3.28407 19.1113C3.22968 20.315 3.59194 21.565 3.76438 22.08V22.0916C3.87202 22.3948 4.29331 23.4318 4.97847 24.3056C5.531 25.007 6.18382 25.6232 6.91593 26.1343V26.1227L6.92634 26.1343C9.09064 27.6042 11.4922 27.5081 11.4922 27.5081C11.9077 27.4907 13.3 27.5081 14.881 26.7593C16.6344 25.9283 17.6321 24.691 17.6321 24.691C18.2699 23.9516 18.7772 23.109 19.1321 22.1992C19.5371 21.1344 19.6714 19.859 19.6714 19.3497V10.1729C19.7258 10.2053 20.4491 10.6833 20.4491 10.6833C20.4491 10.6833 21.4908 11.3511 23.1146 11.7851C24.2789 12.0941 25.8495 12.1601 25.8495 12.1601V7.71926C25.2997 7.77944 24.1828 7.60583 23.0382 7.0364L23.0394 7.03525Z" fill="#152347"/>
</svg>
