<svg width="28" height="29" viewBox="0 0 28 29" fill="none" xmlns="http://www.w3.org/2000/svg">
<g clip-path="url(#clip0_330_2197)">
<path fill-rule="evenodd" clip-rule="evenodd" d="M19.6915 7.41375C21.5665 7.41375 23.5539 8.44566 24.9691 10.2303C20.3304 12.8011 21.0845 19.4995 25.7719 21.2898C25.1261 22.7342 24.8178 23.38 23.9872 24.6591C22.8275 26.4424 21.1956 28.6646 19.1693 28.684C17.3707 28.7007 16.9082 27.4993 14.4666 27.5132C12.025 27.5271 11.5153 28.7049 9.71675 28.6882C7.69181 28.6688 6.14323 26.6633 4.98354 24.8786C1.74196 19.8898 1.40308 14.0358 3.40303 10.9248C4.82382 8.71094 7.06404 7.41513 9.17232 7.41513C11.3181 7.41513 12.6667 8.60538 14.4416 8.60538C16.1638 8.60538 17.211 7.41375 19.6915 7.41375ZM19.1471 0.911133C19.3971 2.59859 18.711 4.25133 17.8096 5.42074C16.8444 6.67349 15.1819 7.6443 13.5736 7.5943C13.2819 5.97906 14.0347 4.3166 14.9486 3.1958C15.9527 1.95972 17.6749 1.01391 19.1471 0.911133Z" fill="#152347"/>
</g>
<defs>
<clipPath id="clip0_330_2197">
<rect width="27.7771" height="27.7771" fill="white" transform="translate(0.078125 0.911133)"/>
</clipPath>
</defs>
</svg>
