<svg width="149" height="40" viewBox="0 0 149 40" fill="none" xmlns="http://www.w3.org/2000/svg">
<rect x="0.8" y="0.8" width="147.4" height="38.4" rx="9.2" stroke="#42356B" stroke-width="1.6"/>
<path fill-rule="evenodd" clip-rule="evenodd" d="M21 15C21 13.9391 21.4214 12.9217 22.1716 12.1716C22.9217 11.4214 23.9391 11 25 11C26.0609 11 27.0783 11.4214 27.8284 12.1716C28.5786 12.9217 29 13.9391 29 15C29 16.0609 28.5786 17.0783 27.8284 17.8284C27.0783 18.5786 26.0609 19 25 19C23.9391 19 22.9217 18.5786 22.1716 17.8284C21.4214 17.0783 21 16.0609 21 15ZM21 21C19.6739 21 18.4021 21.5268 17.4645 22.4645C16.5268 23.4021 16 24.6739 16 26C16 26.7956 16.3161 27.5587 16.8787 28.1213C17.4413 28.6839 18.2044 29 19 29H31C31.7956 29 32.5587 28.6839 33.1213 28.1213C33.6839 27.5587 34 26.7956 34 26C34 24.6739 33.4732 23.4021 32.5355 22.4645C31.5979 21.5268 30.3261 21 29 21H21Z" fill="#42356B"/>
<path d="M53.041 13.4H54.841V26H53.041V13.4ZM45.805 26H44.005V13.4H45.805V26ZM53.203 20.384H45.625V18.818H53.203V20.384ZM64.3326 26V23.984L64.2426 23.606V20.168C64.2426 19.436 64.0266 18.872 63.5946 18.476C63.1746 18.068 62.5386 17.864 61.6866 17.864C61.1226 17.864 60.5706 17.96 60.0306 18.152C59.4906 18.332 59.0346 18.578 58.6626 18.89L57.9426 17.594C58.4346 17.198 59.0226 16.898 59.7066 16.694C60.4026 16.478 61.1286 16.37 61.8846 16.37C63.1926 16.37 64.2006 16.688 64.9086 17.324C65.6166 17.96 65.9706 18.932 65.9706 20.24V26H64.3326ZM61.2006 26.108C60.4926 26.108 59.8686 25.988 59.3286 25.748C58.8006 25.508 58.3926 25.178 58.1046 24.758C57.8166 24.326 57.6726 23.84 57.6726 23.3C57.6726 22.784 57.7926 22.316 58.0326 21.896C58.2846 21.476 58.6866 21.14 59.2386 20.888C59.8026 20.636 60.5586 20.51 61.5066 20.51H64.5306V21.752H61.5786C60.7146 21.752 60.1326 21.896 59.8326 22.184C59.5326 22.472 59.3826 22.82 59.3826 23.228C59.3826 23.696 59.5686 24.074 59.9406 24.362C60.3126 24.638 60.8286 24.776 61.4886 24.776C62.1366 24.776 62.7006 24.632 63.1806 24.344C63.6726 24.056 64.0266 23.636 64.2426 23.084L64.5846 24.272C64.3566 24.836 63.9546 25.286 63.3786 25.622C62.8026 25.946 62.0766 26.108 61.2006 26.108ZM67.7862 29.6C67.3902 29.6 67.0122 29.552 66.6522 29.456C66.2802 29.36 65.9682 29.216 65.7162 29.024L66.2742 27.692C66.6342 27.992 67.1022 28.142 67.6782 28.142C68.1342 28.142 68.4822 27.998 68.7222 27.71C68.9742 27.434 69.1002 27.02 69.1002 26.468V16.46H70.8282V26.432C70.8282 27.404 70.5642 28.172 70.0362 28.736C69.5202 29.312 68.7702 29.6 67.7862 29.6ZM69.9642 14.624C69.6282 14.624 69.3462 14.516 69.1182 14.3C68.9022 14.084 68.7942 13.82 68.7942 13.508C68.7942 13.184 68.9022 12.914 69.1182 12.698C69.3462 12.482 69.6282 12.374 69.9642 12.374C70.3002 12.374 70.5762 12.482 70.7922 12.698C71.0202 12.902 71.1342 13.16 71.1342 13.472C71.1342 13.796 71.0262 14.072 70.8102 14.3C70.5942 14.516 70.3122 14.624 69.9642 14.624ZM80.0474 26V23.984L79.9574 23.606V20.168C79.9574 19.436 79.7414 18.872 79.3094 18.476C78.8894 18.068 78.2534 17.864 77.4014 17.864C76.8374 17.864 76.2854 17.96 75.7454 18.152C75.2054 18.332 74.7494 18.578 74.3774 18.89L73.6574 17.594C74.1494 17.198 74.7374 16.898 75.4214 16.694C76.1174 16.478 76.8434 16.37 77.5994 16.37C78.9074 16.37 79.9154 16.688 80.6234 17.324C81.3314 17.96 81.6854 18.932 81.6854 20.24V26H80.0474ZM76.9154 26.108C76.2074 26.108 75.5834 25.988 75.0434 25.748C74.5154 25.508 74.1074 25.178 73.8194 24.758C73.5314 24.326 73.3874 23.84 73.3874 23.3C73.3874 22.784 73.5074 22.316 73.7474 21.896C73.9994 21.476 74.4014 21.14 74.9534 20.888C75.5174 20.636 76.2734 20.51 77.2214 20.51H80.2454V21.752H77.2934C76.4294 21.752 75.8474 21.896 75.5474 22.184C75.2474 22.472 75.0974 22.82 75.0974 23.228C75.0974 23.696 75.2834 24.074 75.6554 24.362C76.0274 24.638 76.5434 24.776 77.2034 24.776C77.8514 24.776 78.4154 24.632 78.8954 24.344C79.3874 24.056 79.7414 23.636 79.9574 23.084L80.2994 24.272C80.0714 24.836 79.6694 25.286 79.0934 25.622C78.5174 25.946 77.7914 26.108 76.9154 26.108ZM84.797 26V16.46H89.225C90.341 16.46 91.217 16.676 91.853 17.108C92.501 17.528 92.825 18.128 92.825 18.908C92.825 19.688 92.519 20.294 91.907 20.726C91.307 21.146 90.509 21.356 89.513 21.356L89.783 20.888C90.923 20.888 91.769 21.098 92.321 21.518C92.873 21.938 93.149 22.556 93.149 23.372C93.149 24.2 92.837 24.848 92.213 25.316C91.601 25.772 90.659 26 89.387 26H84.797ZM86.489 24.668H89.261C89.981 24.668 90.521 24.56 90.881 24.344C91.241 24.116 91.421 23.756 91.421 23.264C91.421 22.76 91.253 22.394 90.917 22.166C90.593 21.926 90.077 21.806 89.369 21.806H86.489V24.668ZM86.489 20.564H89.081C89.741 20.564 90.239 20.444 90.575 20.204C90.923 19.952 91.097 19.604 91.097 19.16C91.097 18.704 90.923 18.362 90.575 18.134C90.239 17.906 89.741 17.792 89.081 17.792H86.489V20.564ZM95.8537 26V16.46H97.5817V23.408L103.432 16.46H104.998V26H103.27V19.052L97.4377 26H95.8537ZM117.344 26.108C116.372 26.108 115.502 25.898 114.734 25.478C113.978 25.058 113.384 24.482 112.952 23.75C112.52 23.018 112.304 22.178 112.304 21.23C112.304 20.282 112.52 19.442 112.952 18.71C113.384 17.978 113.978 17.408 114.734 17C115.502 16.58 116.372 16.37 117.344 16.37C118.208 16.37 118.976 16.544 119.648 16.892C120.332 17.228 120.86 17.732 121.232 18.404L119.918 19.25C119.606 18.782 119.222 18.44 118.766 18.224C118.322 17.996 117.842 17.882 117.326 17.882C116.702 17.882 116.144 18.02 115.652 18.296C115.16 18.572 114.77 18.962 114.482 19.466C114.194 19.958 114.05 20.546 114.05 21.23C114.05 21.914 114.194 22.508 114.482 23.012C114.77 23.516 115.16 23.906 115.652 24.182C116.144 24.458 116.702 24.596 117.326 24.596C117.842 24.596 118.322 24.488 118.766 24.272C119.222 24.044 119.606 23.696 119.918 23.228L121.232 24.056C120.86 24.716 120.332 25.226 119.648 25.586C118.976 25.934 118.208 26.108 117.344 26.108ZM127.576 26.108C126.556 26.108 125.656 25.898 124.876 25.478C124.108 25.058 123.508 24.482 123.076 23.75C122.656 23.018 122.446 22.178 122.446 21.23C122.446 20.282 122.65 19.442 123.058 18.71C123.478 17.978 124.048 17.408 124.768 17C125.5 16.58 126.322 16.37 127.234 16.37C128.158 16.37 128.974 16.574 129.682 16.982C130.39 17.39 130.942 17.966 131.338 18.71C131.746 19.442 131.95 20.3 131.95 21.284C131.95 21.356 131.944 21.44 131.932 21.536C131.932 21.632 131.926 21.722 131.914 21.806H123.796V20.564H131.014L130.312 20.996C130.324 20.384 130.198 19.838 129.934 19.358C129.67 18.878 129.304 18.506 128.836 18.242C128.38 17.966 127.846 17.828 127.234 17.828C126.634 17.828 126.1 17.966 125.632 18.242C125.164 18.506 124.798 18.884 124.534 19.376C124.27 19.856 124.138 20.408 124.138 21.032V21.32C124.138 21.956 124.282 22.526 124.57 23.03C124.87 23.522 125.284 23.906 125.812 24.182C126.34 24.458 126.946 24.596 127.63 24.596C128.194 24.596 128.704 24.5 129.16 24.308C129.628 24.116 130.036 23.828 130.384 23.444L131.338 24.56C130.906 25.064 130.366 25.448 129.718 25.712C129.082 25.976 128.368 26.108 127.576 26.108Z" fill="#42356B"/>
</svg>
