<svg width="114" height="89" viewBox="0 0 114 89" fill="none" xmlns="http://www.w3.org/2000/svg">
<path d="M85.0621 65.0029C69.7258 74.1544 48.9921 69.2944 39.8503 55.1339H39.8727L39.9444 55.0797L39.9937 55.0391C48.4323 63.9018 58.6266 67.3088 70.5141 64.9668C82.7017 62.5796 92.3451 51.8532 93.6351 39.3894C93.8322 37.3938 93.8322 35.3834 93.6351 33.3877C93.0886 27.6657 94.9071 23.1125 99.7759 19.9357C100.179 19.6739 100.627 19.4844 101.061 19.2498C106.925 32.6431 103.444 54.0328 85.0621 65.0029Z" fill="white"/>
<path d="M75.2709 60.8287C63.1236 68.0489 45.485 63.3964 38.4484 50.901L39.4875 51.9299C45.8702 58.2475 53.3368 61.5056 62.4115 60.2782C75.0469 58.5679 83.0779 48.2386 81.7655 35.459C81.3176 31.0186 83.0779 27.6387 86.7776 25.247C86.9456 25.1387 87.1224 25.0451 87.3062 24.9672C87.4789 24.9095 87.6556 24.8643 87.8347 24.8318C92.5019 35.1702 89.4875 52.3676 75.2709 60.8287Z" fill="white"/>
<path d="M48.2755 47.3903C48.269 47.4029 48.2615 47.415 48.2531 47.4264C48.1589 47.597 48.0283 47.7444 47.8706 47.858C47.7129 47.9715 47.5322 48.0484 47.3414 48.0829C47.1507 48.1175 46.9547 48.1089 46.7677 48.0578C46.5806 48.0066 46.4072 47.9143 46.2599 47.7874C44.5195 46.2373 43.1241 44.334 42.1653 42.2023C41.2066 40.0706 40.7062 37.7587 40.6969 35.4184C40.6858 33.9731 40.8742 32.5334 41.2568 31.1404C41.3081 30.9622 41.3963 30.7969 41.5155 30.6554C41.6347 30.5138 41.7822 30.3993 41.9484 30.3192C42.1146 30.2391 42.2957 30.1953 42.4798 30.1906C42.664 30.1859 42.8471 30.2205 43.0171 30.2921L43.3754 30.441C43.664 30.5668 43.8973 30.7942 44.0317 31.0808C44.1661 31.3673 44.1923 31.6933 44.1055 31.9978C43.8086 33.0842 43.6579 34.2058 43.6576 35.3326C43.6601 37.2722 44.0513 39.1912 44.8079 40.9747C45.5645 42.7582 46.6708 44.3693 48.0605 45.7116C48.2803 45.9251 48.4214 46.2078 48.4605 46.5129C48.4996 46.818 48.4343 47.1275 48.2755 47.3903Z" fill="white"/>
<path d="M73.2777 35.6169C73.2777 43.0988 67.7863 49.6691 60.6691 51.411C60.4538 51.4657 60.2289 51.4704 60.0115 51.4247C59.7941 51.379 59.5899 51.2841 59.4143 51.1471C59.2387 51.0102 59.0962 50.8348 58.9978 50.6343C58.8994 50.4337 58.8475 50.2132 58.8461 49.9895V49.9308C58.8458 49.6045 58.9542 49.2874 59.154 49.0305C59.3538 48.7736 59.6333 48.5917 59.9479 48.5139C65.7708 47.0744 70.3394 41.6683 70.2946 35.6304C70.2364 28.2478 64.2031 22.0476 57.0992 22.0701C54.0745 22.0791 51.1399 23.1086 48.7637 24.9943C48.5204 25.1832 48.2234 25.2886 47.9163 25.2951C47.6092 25.3016 47.3081 25.2088 47.0572 25.0304H47.0303C46.8427 24.896 46.6891 24.7191 46.5818 24.514C46.4746 24.3088 46.4166 24.0812 46.4127 23.8493C46.4088 23.6175 46.459 23.3879 46.5592 23.1792C46.6595 22.9705 46.8071 22.7885 46.99 22.6477C49.4066 20.7897 52.2893 19.6468 55.3146 19.347C58.34 19.0473 61.3884 19.6026 64.118 20.9506C66.8476 22.2987 69.1505 24.3863 70.7684 26.9792C72.3863 29.5721 73.2552 32.5678 73.2777 35.6304V35.6169Z" fill="white"/>
<path d="M57.1127 25.5809C54.4921 25.5474 51.9657 26.5641 50.0892 28.4073C48.2126 30.2504 47.1397 32.7692 47.1064 35.4093C47.0732 38.0495 48.0823 40.5948 49.9118 42.4854C51.7413 44.376 54.2413 45.4569 56.8619 45.4905C58.1594 45.507 59.4476 45.266 60.6527 44.781C61.8578 44.2961 62.9562 43.5768 63.8854 42.6641C64.8146 41.7515 65.5562 40.6634 66.068 39.4619C66.5798 38.2605 66.8517 36.9693 66.8681 35.662C66.8846 34.3548 66.6453 33.057 66.164 31.8429C65.6826 30.6288 64.9687 29.5221 64.0628 28.5859C63.1569 27.6498 62.0769 26.9026 60.8844 26.387C59.6919 25.8714 58.4103 25.5975 57.1127 25.5809ZM57.0007 38.7667C56.3664 38.7667 55.7464 38.5772 55.219 38.2222C54.6916 37.8671 54.2806 37.3625 54.0378 36.7721C53.7951 36.1818 53.7316 35.5321 53.8553 34.9053C53.9791 34.2786 54.2845 33.7029 54.733 33.251C55.1815 32.7992 55.753 32.4914 56.3751 32.3668C56.9972 32.2421 57.642 32.3061 58.228 32.5506C58.814 32.7952 59.3149 33.2093 59.6673 33.7406C60.0197 34.272 60.2077 34.8967 60.2077 35.5357C60.2066 36.3922 59.8683 37.2134 59.2671 37.819C58.6659 38.4247 57.8509 38.7655 57.0007 38.7667Z" fill="white"/>
<path d="M73.533 14.5386L73.4389 14.6153C64.9959 5.7526 54.806 2.34559 42.914 4.68763C30.7265 7.07479 21.0875 17.8012 19.7975 30.265C19.6004 32.2606 19.6004 34.2711 19.7975 36.2667C20.3484 41.9887 18.5255 46.5419 13.6612 49.7188C13.2581 49.9805 12.8102 50.17 12.3757 50.4047C6.52153 37.0068 10.0063 15.6126 28.3884 4.64701C43.662 -4.48195 64.3912 0.373592 73.533 14.5386Z" fill="white"/>
<path d="M74.9349 18.785L73.8958 17.7561C67.5176 11.461 60.0465 8.18038 50.9764 9.4078C38.3409 11.1181 30.3099 21.4474 31.6178 34.227C32.0657 38.6674 30.3054 42.0474 26.6057 44.4435C26.4383 44.5527 26.2614 44.6463 26.0772 44.7233C25.9044 44.7797 25.7277 44.8234 25.5486 44.8542C20.8859 34.5113 23.8959 17.3274 38.1125 8.85275C50.2642 1.61455 67.8983 6.27155 74.9349 18.785Z" fill="white"/>
<path d="M11.6322 83.6083C11.635 84.422 11.398 85.2182 10.9513 85.8962C10.4846 86.6047 9.82093 87.1588 9.04325 87.4891C8.06222 87.8807 7.01181 88.065 5.95717 88.0306C3.77436 88.0306 2.26342 87.608 1.42434 86.7626C0.57791 85.896 0.071888 84.7497 0 83.5361L3.77138 83.2969C3.81128 83.8035 3.98274 84.2906 4.26856 84.7094C4.47699 84.9702 4.74425 85.1772 5.04809 85.313C5.35193 85.4487 5.68356 85.5095 6.0154 85.4901C6.48478 85.5223 6.94974 85.3811 7.32329 85.0929C7.46477 84.9873 7.58011 84.8502 7.66028 84.6923C7.74046 84.5343 7.78331 84.3599 7.78548 84.1825C7.78765 84.0051 7.74907 83.8296 7.67278 83.6697C7.59649 83.5098 7.48454 83.3699 7.34568 83.2608C7.04708 82.9991 6.37074 82.7494 5.31666 82.5117C3.57878 82.1191 2.34255 81.6092 1.59903 80.9459C1.23929 80.6408 0.952264 80.2581 0.759207 79.8261C0.566149 79.3942 0.472001 78.924 0.483734 78.4504C0.485051 77.7804 0.682962 77.1257 1.05258 76.5687C1.48043 75.9457 2.07989 75.4626 2.77703 75.1788C3.77837 74.8019 4.8443 74.6301 5.91238 74.6734C7.55172 74.6734 8.80138 74.9742 9.66136 75.5759C10.5213 76.1776 11.032 77.1538 11.1932 78.5046L7.46214 78.7257C7.45081 78.4849 7.39053 78.2491 7.28502 78.0328C7.17951 77.8165 7.03103 77.6243 6.84877 77.4682C6.66652 77.3121 6.45437 77.1953 6.2255 77.1252C5.99662 77.0551 5.75589 77.0331 5.51822 77.0605C5.14857 77.034 4.78126 77.1377 4.47908 77.3539C4.37007 77.4384 4.28185 77.5471 4.22126 77.6715C4.16068 77.7959 4.12935 77.9328 4.12971 78.0714C4.13212 78.1798 4.15922 78.2862 4.20892 78.3825C4.25862 78.4787 4.3296 78.5622 4.41637 78.6264C4.82398 78.8833 5.28276 79.0466 5.76009 79.1047C7.04116 79.336 8.29056 79.7192 9.4822 80.2464C10.15 80.5587 10.7166 81.0545 11.1171 81.6769C11.4659 82.259 11.6444 82.9285 11.6322 83.6083Z" fill="white"/>
<path d="M21.4816 74.8719H17.1593L12.3399 87.787H16.371L16.9981 85.6525H21.4772L22.1177 87.787H26.2653L21.4816 74.8719ZM17.8715 82.8637L19.269 78.2158L20.6844 82.8637H17.8715Z" fill="white"/>
<path d="M31.5551 77.6472V79.8989H36.5224V82.5072H31.5551V87.787H27.5732V74.8719H37.3689V77.6472H31.5551Z" fill="white"/>
<path d="M50.3045 84.8628V87.787H39.4965V74.8719H50.1119V77.6291H43.465V79.6824H49.6282V82.3132H43.465V84.8628H50.3045Z" fill="white"/>
<path d="M63.6432 82.065C63.113 81.462 62.3966 81.0566 61.6097 80.9143C62.1376 80.7531 62.6146 80.456 62.9937 80.0524C63.4639 79.5078 63.7162 78.8065 63.7014 78.0849C63.7097 77.6538 63.625 77.226 63.4534 76.831C63.2817 76.4361 63.0271 76.0833 62.7071 75.797C62.0472 75.1773 61.0991 74.8689 59.8629 74.8719H52.4455V87.787H59.303C59.9028 87.7596 60.5008 87.7008 61.0946 87.611C61.6181 87.5653 62.1285 87.4214 62.5996 87.1868C63.1262 86.8848 63.5637 86.4472 63.8671 85.9187C64.1745 85.3684 64.3292 84.745 64.3151 84.1137C64.3367 83.3725 64.0989 82.6473 63.6432 82.065ZM56.4408 77.4847H58.1922C58.6373 77.4416 59.0835 77.5548 59.4553 77.8051C59.577 77.9152 59.6728 78.0514 59.7356 78.2037C59.7984 78.3559 59.8265 78.5204 59.8181 78.6851C59.8295 78.8574 59.8029 79.0301 59.7402 79.1909C59.6775 79.3516 59.5802 79.4963 59.4553 79.6146C59.0752 79.869 58.6191 79.9823 58.1653 79.935H56.4408V77.4847ZM59.9076 84.6462C59.481 84.931 58.9704 85.06 58.4609 85.0117H56.4408V82.3944H58.4519C58.9633 82.3462 59.4762 82.4682 59.9121 82.7419C60.0431 82.852 60.1481 82.9901 60.2194 83.1462C60.2907 83.3024 60.3265 83.4725 60.3242 83.6444C60.3347 83.8323 60.3027 84.0201 60.2305 84.1936C60.1583 84.3672 60.0479 84.5219 59.9076 84.6462Z" fill="white"/>
<path d="M76.5116 84.6056V87.787H66.3709V74.8719H70.3304V84.6056H76.5116Z" fill="white"/>
<path d="M82.4419 74.8719H78.4734V87.787H82.4419V74.8719Z" fill="white"/>
<path d="M97.5722 74.8719V87.787H93.8366L89.0351 80.6932V87.787H85.313V74.8719H89.0127L93.8366 82.0154V74.8719H97.5722Z" fill="white"/>
<path d="M113.813 87.787H108.931L106.23 82.4756L104.183 84.6327V87.787H100.224V74.8719H104.183V79.75L108.331 74.8719H113.603L108.922 79.7455L113.813 87.787Z" fill="white"/>
</svg>
