<svg width="26" height="26" viewBox="0 0 26 26" fill="none" xmlns="http://www.w3.org/2000/svg">
<g clip-path="url(#clip0_330_2188)">
<path d="M25.3536 13.0414C25.3536 12.0054 25.2676 11.2494 25.0814 10.4653H12.9736V15.1415H20.0806C19.9374 16.3035 19.1636 18.0536 17.4441 19.2296L17.42 19.3861L21.2483 22.2839L21.5135 22.3098C23.9493 20.1117 25.3536 16.8775 25.3536 13.0414Z" fill="#152347"/>
<path d="M12.9746 25.3619C16.4564 25.3619 19.3794 24.2418 21.5145 22.3098L17.4451 19.2296C16.3562 19.9716 14.8946 20.4897 12.9746 20.4897C9.56442 20.4897 6.67005 18.2916 5.63829 15.2535L5.48706 15.2661L1.5064 18.2762L1.45435 18.4176C3.57496 22.5337 7.93089 25.3619 12.9746 25.3619Z" fill="#152347"/>
<path d="M5.63783 15.2536C5.36559 14.4696 5.20804 13.6295 5.20804 12.7615C5.20804 11.8934 5.36559 11.0534 5.62351 10.2694L5.6163 10.1024L1.58576 7.04395L1.45389 7.10523C0.579878 8.81332 0.0783691 10.7314 0.0783691 12.7615C0.0783691 14.7916 0.579878 16.7096 1.45389 18.4177L5.63783 15.2536Z" fill="#152347"/>
<path d="M12.9746 5.03304C15.3961 5.03304 17.0296 6.05507 17.961 6.90916L21.6004 3.43701C19.3652 1.40694 16.4564 0.160889 12.9746 0.160889C7.93089 0.160889 3.57497 2.98897 1.45435 7.10509L5.62397 10.2693C6.67005 7.23115 9.56442 5.03304 12.9746 5.03304Z" fill="#152347"/>
</g>
<defs>
<clipPath id="clip0_330_2188">
<rect width="25.2878" height="25.2878" fill="white" transform="translate(0.078125 0.160889)"/>
</clipPath>
</defs>
</svg>
