<svg width="24" height="25" viewBox="0 0 24 25" fill="none" xmlns="http://www.w3.org/2000/svg">
<g clip-path="url(#clip0_811_523)">
<path fill-rule="evenodd" clip-rule="evenodd" d="M8.172 15.8636C12.017 19.7086 15.58 20.1296 16.626 20.1686C17.89 20.2146 19.18 19.1826 19.738 18.1256C18.848 17.0816 17.689 16.2716 16.419 15.3936C15.671 16.1416 14.749 17.5316 13.519 17.0336C12.82 16.7526 11.094 15.9576 9.586 14.4486C8.077 12.9406 7.283 11.2146 7 10.5166C6.502 9.28564 7.896 8.36064 8.645 7.61164C7.767 6.32164 6.971 5.13264 5.929 4.28764C4.857 4.84764 3.819 6.12764 3.866 7.40864C3.905 8.45464 4.326 12.0176 8.172 15.8636ZM16.552 22.1666C15.112 22.1136 11.031 21.5506 6.757 17.2766C2.484 13.0036 1.921 8.92364 1.867 7.48264C1.787 5.28664 3.469 3.15364 5.412 2.32064C5.64598 2.21961 5.9022 2.18114 6.15553 2.20901C6.40886 2.23689 6.65059 2.33015 6.857 2.47964C8.465 3.65264 9.574 5.42964 10.527 6.82164C10.7252 7.11109 10.8161 7.46074 10.7837 7.81008C10.7514 8.15943 10.598 8.48648 10.35 8.73464L8.994 10.0916C9.309 10.7866 9.95 11.9846 11 13.0346C12.05 14.0846 13.248 14.7256 13.944 15.0406L15.299 13.6846C15.5481 13.4361 15.8765 13.2829 16.227 13.2516C16.5775 13.2204 16.9278 13.3131 17.217 13.5136C18.637 14.4976 20.305 15.5906 21.521 17.1476C21.6826 17.3555 21.7854 17.603 21.8187 17.8643C21.8519 18.1255 21.8144 18.3909 21.71 18.6326C20.873 20.5856 18.755 22.2476 16.552 22.1666Z" fill="white"/>
</g>
<defs>
<clipPath id="clip0_811_523">
<rect width="24" height="24" fill="white" transform="translate(0 0.034668)"/>
</clipPath>
</defs>
</svg>
