<svg width="136" height="136" viewBox="0 0 136 136" fill="none" xmlns="http://www.w3.org/2000/svg">
<path d="M53.9933 88.1532V48.0591C53.9941 47.5575 54.1301 47.0653 54.3869 46.6341C54.6438 46.203 55.0121 45.8487 55.4532 45.6085C55.8943 45.3683 56.392 45.251 56.8941 45.2688C57.3963 45.2866 57.8844 45.439 58.3073 45.7099L89.5474 65.7513C89.943 66.0043 90.2685 66.3526 90.4939 66.7641C90.7193 67.1756 90.8375 67.6371 90.8375 68.1062C90.8375 68.5752 90.7193 69.0367 90.4939 69.4482C90.2685 69.8597 89.943 70.208 89.5474 70.461L58.3073 90.508C57.8844 90.7789 57.3963 90.9313 56.8941 90.9491C56.392 90.9669 55.8943 90.8496 55.4532 90.6094C55.0121 90.3692 54.6438 90.0149 54.3869 89.5838C54.1301 89.1526 53.9941 88.6604 53.9933 88.1588V88.1532Z" fill="white"/>
<path d="M6.37122 68.1062C6.37122 34.1258 33.9641 6.57788 67.9999 6.57788C102.036 6.57788 129.629 34.1258 129.629 68.1062C129.629 102.087 102.036 129.634 67.9999 129.634C33.9641 129.634 6.37122 102.087 6.37122 68.1062ZM67.9999 14.9681C53.8838 14.9681 40.3459 20.5666 30.3643 30.5319C20.3827 40.4972 14.7751 54.0131 14.7751 68.1062C14.7751 82.1993 20.3827 95.7151 30.3643 105.68C40.3459 115.646 53.8838 121.244 67.9999 121.244C82.116 121.244 95.6539 115.646 105.635 105.68C115.617 95.7151 121.225 82.1993 121.225 68.1062C121.225 54.0131 115.617 40.4972 105.635 30.5319C95.6539 20.5666 82.116 14.9681 67.9999 14.9681Z" fill="white"/>
</svg>
