<svg width="100" height="100" viewBox="0 0 100 100" fill="none" xmlns="http://www.w3.org/2000/svg">
<g filter="url(#filter0_d_330_2099)">
<path d="M79.1665 54.1666C80.5832 54.1666 81.9582 54.3333 83.3332 54.5416V41.6666C83.3332 39.4565 82.4552 37.3369 80.8924 35.7741C79.3296 34.2113 77.21 33.3333 74.9998 33.3333H70.8332V25C70.8332 13.5 61.4998 4.16663 49.9998 4.16663C38.4998 4.16663 29.1665 13.5 29.1665 25V33.3333H24.9998C22.7897 33.3333 20.6701 34.2113 19.1073 35.7741C17.5445 37.3369 16.6665 39.4565 16.6665 41.6666V83.3333C16.6665 87.9583 20.3748 91.6666 24.9998 91.6666H57.5415C55.4165 88 54.1665 83.75 54.1665 79.1666C54.1665 65.375 65.3748 54.1666 79.1665 54.1666ZM37.4998 25C37.4998 18.0833 43.0832 12.5 49.9998 12.5C56.9165 12.5 62.4998 18.0833 62.4998 25V33.3333H37.4998V25ZM49.9998 70.8333C48.3517 70.8333 46.7405 70.3446 45.3701 69.4289C43.9997 68.5132 42.9316 67.2117 42.3008 65.689C41.6701 64.1663 41.5051 62.4907 41.8266 60.8742C42.1482 59.2577 42.9418 57.7728 44.1073 56.6074C45.2727 55.442 46.7576 54.6483 48.3741 54.3267C49.9906 54.0052 51.6661 54.1702 53.1889 54.801C54.7116 55.4317 56.0131 56.4998 56.9288 57.8702C57.8444 59.2406 58.3332 60.8518 58.3332 62.5C58.3332 67.125 54.6248 70.8333 49.9998 70.8333ZM93.7498 71.875L73.9582 91.6666L62.4998 79.1666L67.3332 74.3333L73.9582 80.9583L88.9165 66L93.7498 71.875Z" fill="white" fill-opacity="0.6" shape-rendering="crispEdges"/>
</g>
<defs>
<filter id="filter0_d_330_2099" x="0.666504" y="-3.83337" width="109.083" height="119.5" filterUnits="userSpaceOnUse" color-interpolation-filters="sRGB">
<feFlood flood-opacity="0" result="BackgroundImageFix"/>
<feColorMatrix in="SourceAlpha" type="matrix" values="0 0 0 0 0 0 0 0 0 0 0 0 0 0 0 0 0 0 127 0" result="hardAlpha"/>
<feOffset dy="8"/>
<feGaussianBlur stdDeviation="8"/>
<feComposite in2="hardAlpha" operator="out"/>
<feColorMatrix type="matrix" values="0 0 0 0 0.258824 0 0 0 0 0.207843 0 0 0 0 0.419608 0 0 0 0.1 0"/>
<feBlend mode="multiply" in2="BackgroundImageFix" result="effect1_dropShadow_330_2099"/>
<feBlend mode="normal" in="SourceGraphic" in2="effect1_dropShadow_330_2099" result="shape"/>
</filter>
</defs>
</svg>
