<svg width="29" height="24" viewBox="0 0 29 24" fill="none" xmlns="http://www.w3.org/2000/svg">
<path d="M25.5098 4.96172C25.403 4.54266 25.0992 4.22625 24.7519 4.12922C24.1359 3.95625 21.142 3.5625 14.8139 3.5625C8.48578 3.5625 5.49328 3.95625 4.87313 4.12922C4.53 4.22484 4.22625 4.54125 4.11797 4.96172C3.96469 5.55797 3.56391 8.05547 3.56391 12C3.56391 15.9431 3.96469 18.4406 4.11797 19.0397C4.22484 19.4573 4.52859 19.7738 4.87453 19.8694C5.49328 20.0438 8.48437 20.4375 14.8125 20.4375C21.1406 20.4375 24.1345 20.0438 24.7533 19.8708C25.0964 19.7752 25.4002 19.4587 25.5084 19.0383C25.6631 18.442 26.0625 15.9375 26.0625 12C26.0625 8.0625 25.6631 5.55937 25.5098 4.96172ZM28.2337 4.26281C28.8764 6.76875 28.8764 12 28.8764 12C28.8764 12 28.8764 17.2313 28.2337 19.7372C27.8766 21.1223 26.8317 22.2122 25.5084 22.5806C23.1052 23.25 14.8125 23.25 14.8125 23.25C14.8125 23.25 6.52547 23.25 4.11797 22.5806C2.78906 22.2066 1.74562 21.1181 1.39266 19.7372C0.75 17.2313 0.75 12 0.75 12C0.75 12 0.75 6.76875 1.39266 4.26281C1.74984 2.87766 2.79469 1.78781 4.11797 1.41937C6.52687 0.75 14.8139 0.75 14.8139 0.75C14.8139 0.75 23.1052 0.75 25.5084 1.41937C26.8359 1.79344 27.8808 2.88188 28.2337 4.26281ZM12.0014 16.9219V7.07812L20.4389 12L12.0014 16.9219Z" fill="white"/>
</svg>
